# Blender v2.82 (sub 7) OBJ File: ''
# www.blender.org
mtllib thign.mtl
o Cube
v 1.000000 1.000000 -1.000000
v 1.000000 -1.000000 1.000000
v -1.000000 1.000000 -1.000000
v -1.000000 -1.000000 -1.000000
v -1.000000 1.000000 1.000000
v -1.000000 -1.000000 1.000000
v 1.000000 2.133326 -1.000000
v 1.000000 2.133326 1.000000
v -1.000000 2.133326 -1.000000
v -1.000000 2.133326 1.000000
v -10.003768 -0.418464 -10.003768
v -5.374027 2.567870 -6.229066
v -0.919596 0.439411 -1.065909
v -0.919596 0.439411 -1.065909
v 1.094259 -0.730149 -0.811835
v 0.790931 -1.000000 -1.110135
v 1.000000 3.922872 -0.789546
v 0.844225 3.918978 -1.141510
v 1.005520 4.247868 -1.000000
v 0.864789 3.942909 1.095387
v 1.094259 3.945161 0.863660
v 0.789546 4.133326 0.789546
v -1.743901 5.484335 -1.086737
v -1.000000 4.133326 -1.000000
v -1.000000 3.922872 -1.000000
v -1.000000 4.248286 1.004818
v -1.000000 3.920252 1.000000
v 2.819318 0.253569 2.722719
v 2.811847 0.005212 2.958123
v -5.371974 3.943646 -6.808132
v -7.735032 3.430364 -8.884380
v -5.460360 3.729685 -5.788417
vt 0.375000 0.000000
vt 0.375000 0.250000
vt 0.625000 0.250000
vt 0.625000 0.000000
vt 0.375000 0.250000
vt 0.598693 0.250000
vt 0.625000 0.250000
vt 0.639318 0.500690
vt 0.375000 0.500000
vt 0.375000 0.512367
vt 0.375000 0.750000
vt 0.375000 1.000000
vt 0.875000 0.500000
vt 0.625882 0.500462
vt 0.222822 0.146993
vt 0.875000 0.500000
vt 0.164570 0.094040
vt 0.003461 0.001978
vt 0.125000 0.500000
vt 0.375000 0.750000
vt 0.125000 0.750000
vt 0.369027 0.500421
vt 0.000000 0.000000
vt 0.624310 0.500000
vt 0.875000 0.750602
vt 0.651307 0.723693
vt 0.125000 0.500000
vt 0.125000 0.750000
vt 0.348866 0.486233
vt -0.003366 -0.006732
vt 0.000000 0.000000
vt 0.000000 0.000000
vt 0.000000 0.000000
vt 0.000000 0.000000
vt 0.838681 0.718869
vt -0.010943 -0.011577
vt 0.616200 0.716548
vt 0.375000 0.000000
vt 0.639370 -0.000602
vt 0.625000 0.250000
vt 0.000000 0.000000
vt 0.037417 0.093698
vt 0.404710 0.565534
vt 0.598379 0.499271
vt 0.597463 0.697816
vt 0.028068 0.031870
vt 0.026792 0.023580
vt 0.598902 0.479122
vt 0.625000 0.500000
vt 0.328158 0.187519
vt 0.000000 0.000000
vt 0.000000 0.000000
vt 0.000000 0.000000
vt 0.000000 0.000000
vt 0.000000 0.000000
vt 0.353103 0.470804
vt 0.024148 0.032197
vt 0.000000 0.000000
vt 0.375000 0.473866
vt 0.625000 0.500000
vn 1.0000 0.0000 0.0000
vn 0.0000 0.0000 -1.0000
vn 0.0000 -1.0000 0.0000
vn -0.0570 0.9983 0.0103
vn -0.7929 0.3576 0.4933
vn -0.0317 -0.9991 -0.0269
vn 0.2993 0.9541 -0.0095
vn 0.0000 1.0000 0.0000
vn 0.0000 -0.8896 0.4567
vn 0.6493 -0.0781 -0.7565
vn -0.3565 0.1166 0.9270
vn -0.9907 -0.1346 0.0218
vn -0.7918 0.1286 0.5971
vn 0.5270 -0.8482 -0.0522
vn 0.9284 0.1254 -0.3499
vn 0.8826 -0.2660 -0.3877
vn 0.4053 0.8175 0.4093
vn 0.1158 0.0000 -0.9933
vn -0.3449 0.9242 0.1640
vn 0.0410 0.5061 0.8615
vn 0.8522 0.5213 0.0441
vn 0.5727 0.5653 0.5937
vn 0.6718 -0.0722 -0.7372
vn -0.7972 0.0883 0.5972
vn 0.8359 -0.4661 -0.2899
vn 0.8163 0.0029 -0.5776
vn -0.7885 0.3463 0.5083
vn 0.0290 -0.0290 0.9992
usemtl Material
s off
f 6/1/1 4/2/1 3/3/1 5/4/1
f 9/5/2 25/6/2 24/7/2 19/8/2 7/9/2
f 16/10/3 2/11/3 6/12/3
f 24/13/4 19/14/4 30/15/4
f 23/16/5 32/17/5 26/18/5
f 9/19/3 7/9/3 8/20/3 10/21/3
f 16/22/6 6/12/6 11/23/6
f 19/24/7 24/13/7 23/16/7 26/25/7 22/26/7
f 4/27/8 6/28/8 2/11/8 16/29/8
f 2/11/9 29/30/9 6/31/9
f 18/32/10 16/33/10 11/23/10 31/34/10
f 27/35/11 6/31/11 29/36/11 20/37/11
f 10/38/12 26/39/12 23/40/12 25/6/12 9/5/12
f 27/41/13 31/34/13 11/23/13 6/31/13
f 29/42/14 2/11/14 16/43/14
f 17/44/15 21/45/15 28/46/15 15/47/15
f 17/44/16 18/48/16 19/49/16
f 20/37/17 21/45/17 22/26/17
f 23/40/18 24/7/18 25/6/18
f 30/15/19 31/34/19 32/50/19
f 22/26/20 26/25/20 27/35/20 20/37/20
f 19/51/21 22/52/21 21/53/21 17/54/21
f 28/46/22 21/45/22 20/37/22 29/36/22
f 18/32/23 31/34/23 30/55/23 19/51/23
f 32/17/24 24/13/24 23/16/24 30/15/24
f 29/42/25 16/43/25 15/56/25 28/57/25
f 16/33/26 18/32/26 17/54/26 15/58/26
f 26/18/27 32/17/27 31/34/27 27/41/27
f 4/2/28 16/59/28 1/60/28 3/3/28
l 12 13
l 13 14
l 32 14
